# xmcd
#
# Track frame offsets: 
#        150
#        18606
#        33846
#        54952
#        76580
#        92151
#        118072
#        133151
#        155762
#        170381
#        190938
#        211166
#        225507
#        241550
#        263193
#        275971
#
# Disc length: 3889 seconds
#
# Revision: 0
# Processed by: cddbd v1.5.2PL0 Copyright (c) Steve Scherf et al.
# Submitted via: ExactAudioCopy v1.0b4
#
DISCID=d10f2f10
DTITLE=Various Artist - St. Louis Blues Society presents 16 in 16
DYEAR=2016
DGENRE=Blues
TTITLE0=David Dee - Bit By The Blues
TTITLE1=Marty Spikener's On Call Band - Crawlin' Back
TTITLE2=The Maness Brothers - Drive Me (And My Soul)
TTITLE3=Leroy Pierson - Easy Rider
TTITLE4=The Fab Foehners - Homeless Child
TTITLE5=Skeet Rodgers and The Inner City Blues Band - I Wonder
TTITLE6=Delta Sol Revival - I'd Rather
TTITLE7=Papa Ray - Saint Louis Gunshot Blues
TTITLE8=John McVey Band - She's My Girl Now
TTITLE9=Tommy Halloran - Sleepin' Dog
TTITLE10=Bob Case - Sometimes It Feels (Like The Whole World's Gone Cr
TTITLE10=azy)
TTITLE11=Paul Bonn and The Bluesmen - Stop The Killin'
TTITLE12=Tom Hall - Texas Twister Blues
TTITLE13=Sweetie and The Toothaches - Bigger Fool
TTITLE14=Little Rachel - Time Flies In The Friendly Skies
TTITLE15=Gene Jackson - Ain't No Way
EXTD=
EXTT0=
EXTT1=
EXTT2=
EXTT3=
EXTT4=
EXTT5=
EXTT6=
EXTT7=
EXTT8=
EXTT9=
EXTT10=
EXTT11=
EXTT12=
EXTT13=
EXTT14=
EXTT15=
PLAYORDER=
